<?xml version="1.0" encoding="UTF-8" standalone="no"?>
<!DOCTYPE svg PUBLIC "-//W3C//DTD SVG 1.1//EN" "http://www.w3.org/Graphics/SVG/1.1/DTD/svg11.dtd">
<svg width="100%" height="100%" viewBox="0 0 31 45" version="1.1" xmlns="http://www.w3.org/2000/svg" xmlns:xlink="http://www.w3.org/1999/xlink" xml:space="preserve" xmlns:serif="http://www.serif.com/" style="fill-rule:evenodd;clip-rule:evenodd;stroke-linecap:round;stroke-linejoin:round;stroke-miterlimit:1.5;">
    <g transform="matrix(1,0,0,1,-424.198,-637.212)">
        <path d="M445.989,654.975C449.483,657.165 451.808,661.05 451.808,665.474C451.808,672.308 446.259,677.857 439.425,677.857C432.591,677.857 427.043,672.308 427.043,665.474C427.043,661.05 429.367,657.165 432.861,654.975C432.585,654.652 432.444,654.311 432.444,653.966C432.444,653.1 433.32,652.321 434.717,651.779L434.717,648.662C434.717,647.024 436.047,645.695 437.685,645.695L438.228,645.695L438.228,641.4L440.622,641.4L440.622,645.695L441.166,645.695C442.803,645.695 444.133,647.024 444.133,648.662L444.133,651.779C445.53,652.321 446.406,653.1 446.406,653.966C446.406,654.311 446.265,654.652 445.989,654.975Z" style="fill:rgb(255,55,152);stroke:white;stroke-width:3.32px;"/>
    </g>
    <g id="Artboard1" transform="matrix(1.22972,0,0,1.22972,0,0)">
        <rect x="0" y="0" width="24.765" height="36.457" style="fill:none;"/>
        <g id="Lightbulb" transform="matrix(0.813194,0,0,0.813194,-344.955,-518.177)">
            <path d="M445.989,654.975C449.483,657.165 451.808,661.05 451.808,665.474C451.808,672.308 446.259,677.857 439.425,677.857C432.591,677.857 427.043,672.308 427.043,665.474C427.043,661.05 429.367,657.165 432.861,654.975C432.92,655.045 432.986,655.113 433.057,655.181L445.793,655.181C445.864,655.113 445.93,655.045 445.989,654.975Z" style="fill:rgb(255,55,152);"/>
            <path d="M434.717,651.779L434.717,648.662C434.717,647.024 436.047,645.695 437.685,645.695L438.228,645.695L438.228,641.689C438.228,641.529 438.357,641.4 438.517,641.4C438.978,641.4 439.872,641.4 440.333,641.4C440.493,641.4 440.622,641.529 440.622,641.689C440.622,642.653 440.622,645.695 440.622,645.695L441.166,645.695C442.803,645.695 444.133,647.024 444.133,648.662L444.133,651.779C445.53,652.321 446.406,653.1 446.406,653.966C446.406,654.311 446.265,654.652 445.989,654.975C445.93,655.045 445.864,655.113 445.793,655.181L433.057,655.181C432.986,655.113 432.92,655.045 432.861,654.975C432.585,654.652 432.444,654.311 432.444,653.966C432.444,653.1 433.32,652.321 434.717,651.779Z" style="fill:rgb(80,80,80);"/>
        </g>
    </g>
</svg>
